<?xml version="1.0" encoding="UTF-8"?><svg id="Calque_2" xmlns="http://www.w3.org/2000/svg" width="135" height="135" viewBox="0 0 135 135"><defs><style>.cls-1{fill:#f7f6f5;}.cls-2{fill:#010201;}</style></defs><g id="Graphic_Elements"><g><path class="cls-1" d="M135,67.5C135,30.22,104.78,0,67.5,0S0,30.22,0,67.5c0,33.69,24.68,61.62,56.95,66.68v-47.17h-17.14v-19.51h17.14v-14.87c0-16.92,10.08-26.26,25.5-26.26,7.39,0,15.11,1.32,15.11,1.32v16.61h-8.51c-8.38,0-11,5.2-11,10.54v12.66h18.72l-2.99,19.51h-15.73v47.17c32.27-5.06,56.95-32.99,56.95-66.68Z"/><path class="cls-2" d="M93.77,87.01l2.99-19.51h-18.72v-12.66c0-5.34,2.61-10.54,11-10.54h8.51V27.69s-7.72-1.32-15.11-1.32c-15.42,0-25.5,9.34-25.5,26.26v14.87h-17.14v19.51h17.14v47.17c3.44,.54,6.96,.82,10.55,.82s7.11-.28,10.55-.82v-47.17h15.73Z"/></g></g></svg>