<?xml version="1.0" encoding="UTF-8"?><svg id="Calque_2" xmlns="http://www.w3.org/2000/svg" width="135" height="135" viewBox="0 0 135 135"><defs><style>.cls-1{fill:#f7f6f5;}.cls-2{fill:#010201;}</style></defs><g id="Graphic_Elements"><g><circle class="cls-1" cx="67.5" cy="67.5" r="67.5"/><path class="cls-2" d="M105.32,45.19c0-.39-.01-.41-.42-.4-.99,0-1.97-.11-2.94-.26-3.53-.53-14.99-6.54-16.93-16.37-.04-.19-.47-2.63-.47-3.67,0-.46,0-.47-.46-.47-.11,0-.21,0-.32,0-4.48,0-8.97,0-13.45,0-.9,0-.78-.11-.78,.79,0,19.44,0,38.88,0,58.32,0,.73-.02,1.45-.15,2.16-.68,3.76-2.6,6.71-5.86,8.72-2.82,1.74-5.89,2.24-9.15,1.59-1.03-.2-1.99-.59-2.95-.97-.08-.07-.16-.14-.23-.21-.32-.27-.68-.5-1.03-.74-4.15-2.87-6.12-6.86-5.52-11.85,.61-5.06,3.52-8.5,8.32-10.27,1.43-.53,2.94-.75,4.47-.66,.99,.05,1.97,.18,2.92,.45,.33,.09,.51-.02,.53-.37,0-.12,0-.25,0-.37,0-3.49-.13-11.11-.15-11.13,0-1,0-2.01,.03-3.01,0-.29-.14-.34-.38-.37-1.81-.21-3.62-.26-5.44-.12-2.51,.18-4.95,.7-7.32,1.55-3.78,1.36-7.09,3.46-9.95,6.26-2.46,2.41-4.39,5.19-5.8,8.33-1.36,3-2.13,6.15-2.35,9.43-.09,1.42-.08,2.85,.06,4.28,.18,1.97,.56,3.9,1.16,5.79,1.72,5.42,4.86,9.86,9.31,13.39,.45,.36,.89,.75,1.43,.98,0,0,0,0,0,0,.23,.2,.45,.4,.68,.6,.72,.54,1.49,1.01,2.3,1.4,4.98,2.46,10.23,3.46,15.76,2.79,7.18-.88,13.16-4.06,17.86-9.54,4.43-5.16,6.58-11.21,6.62-17.98,.06-9.68,.01-19.36,.02-29.05,0-.23-.13-.56,.12-.68,.2-.09,.4,.17,.59,.3,3.6,2.37,7.49,4.08,11.7,5.04,2.45,.56,4.92,.9,7.44,.9,.79,0,.9-.04,.9-.83,0-3.44-.18-12.84-.17-13.75Z"/></g></g></svg>